PathFileType	4	(X/Y/Z)	C:/Users/beibeiliu/ov580/test_trc\sequence.27_training_dense_left.trc
DataRate	CameraRate	NumFrames	NumMarkers	Units	OrigDataRate	OrigDataStartFrame	OrigNumFrames
120	120	20	19	mm	120	207	331
Frame#	Time	ThumbCMC			ThumbMCP			ThumbIP			ThumbTip			IndexMCP			IndexPIP			IndexTip			MiddleMCP			MiddlePIP			MiddleTip			RingMCP			RingPIP			RingTip			PinkyMCP			PinkyPIP			PinkyTip			BackHand1			BackHand2			BackHand3	
		X0	Y0	Z0	X1	Y1	Z1	X2	Y2	Z2	X3	Y3	Z3	X4	Y4	Z4	X5	Y5	Z5	X6	Y6	Z6	X7	Y7	Z7	X8	Y8	Z8	X9	Y9	Z9	X10	Y10	Z10	X11	Y11	Z11	X12	Y12	Z12	X13	Y13	Z13	X14	Y14	Z14	X15	Y15	Z15	X16	Y16	Z16	X17	Y17	Z17	X18	Y18	Z18	
206	1.71667	-206.752	46.408	28.1617	-188.242	36.6275	5.31246	-184.742	26.7959	-16.6168	-180.162	14.8836	-38.9045	-225.943	48.2561	-30.9082	-208.288	45.0562	-54.2682	-190.775	35.6929	-66.1306	-241.692	35.9467	-35.7325	-239.738	28.9141	-60.7985	-229.548	25.4094	-83.9672	-240.763	12.377	-30.0109	-221.799	8.23725	-51.2518	-196.216	0.245367	-52.554	-242.177	-2.75552	-17.4569	-228.668	-6.67219	-37.7989	-206.746	-6.31043	-48.9747	-251.825	21.986	16.0783	-252.132	16.6291	45.1814	-240.404	44.6576	27.2101	
207	1.725	-214.217	47.1105	29.4566	-191.211	39.0831	6.53836	-184.266	29.3444	-16.4552	-176.739	17.0467	-33.2495	-228.974	45.1363	-34.4611	-213.327	42.7864	-53.4186	-194.041	34.4636	-64.6875	-243.641	25.6468	-37.466	-239.326	20.9441	-61.0577	-228.126	13.7188	-85.5925	-236.589	8.99334	-31.5226	-218.442	-0.944816	-47.6905	-193.468	0.93066	-47.3642	-238.441	-13.0634	-18.8337	-224.096	-16.2908	-35.8868	-200.824	-14.3202	-42.7603	-252.552	15.0316	16.2042	-255.464	14.2195	41.2139	-246.806	38.8312	28.9892	
208	1.73333	-219.73	47.8184	29.892	-197.887	39.6688	6.08417	-184.422	31.2849	-14.247	-176.728	13.9876	-31.1868	-231.701	38.0181	-35.6664	-213.915	39.7939	-56.1121	-194.139	32.1701	-65.1412	-243.312	17.8832	-36.2083	-234.547	13.7481	-62.0853	-220.232	3.75166	-86.1557	-235.122	-1.73528	-29.2827	-209.397	-0.390009	-45.769	-184.574	0.126996	-41.2584	-234.493	-13.724	-18.2672	-215.748	-17.6491	-33.857	-199.347	-15.3529	-39.1943	-252.901	9.1734	17.1134	-256.488	9.13793	41.8851	-252.01	33.0469	25.4109	
209	1.74167	-224.736	47.6622	27.7881	-199.386	43.2915	9.22577	-185.995	30.559	-13.8711	-177.286	15.7536	-25.5854	-232.24	36.1915	-34.3439	-212.925	33.5641	-54.8458	-189.564	27.9416	-64.0999	-239.737	10.7636	-37.48	-228.421	6.09995	-63.504	-211.864	3.40145	-84.221	-230.531	-2.18995	-28.6467	-206.61	-3.0223	-43.6492	-179.482	2.20356	-36.1802	-228.247	-20.3571	-15.2287	-209.629	-23.2615	-29.0693	-187.59	-14.4517	-34.3017	-253.901	4.18636	14.4309	-257.886	9.78987	35.6721	-256.483	30.2663	23.6508	
210	1.75	-229.673	47.1226	23.0582	-201.714	43.2265	8.75011	-188.078	31.5036	-9.17938	-173.926	17.2128	-23.4036	-229.427	35.7271	-39.4526	-208.645	34.4688	-56.7276	-187.971	28.4751	-62.2837	-235.12	8.34538	-40.3372	-223.86	5.36909	-60.1024	-201.311	-2.72057	-81.9698	-224.176	-7.91565	-28.1683	-202.085	-3.65864	-39.7331	-177.423	3.83375	-32.0722	-223.956	-23.5465	-12.6533	-202.637	-22.6478	-25.9584	-183.262	-11.7168	-30.4895	-254.756	2.89144	14.5095	-258.559	4.7506	40.0592	-257.178	28.4658	17.0309	
211	1.75833	-234.048	44.7432	24.3451	-205.024	42.6793	7.01147	-186.326	35.2234	-8.11839	-174.306	22.3071	-16.252	-228.29	32.8783	-40.3485	-209.079	30.3788	-54.0688	-182.694	28.5445	-61.5801	-231.545	4.02312	-37.7866	-217.889	2.10659	-58.3373	-193.127	-3.93101	-77.3413	-218.206	-10.2738	-28.9002	-193.12	-4.50296	-37.1897	-171.634	7.58211	-25.6834	-216.412	-23.3864	-13.0794	-198.67	-21.0222	-21.1152	-179.511	-10.3743	-26.1386	-251.973	-4.52993	11.3965	-258.858	0.187909	35.0266	-261.116	27.012	15.1174	
212	1.76667	-237.94	48.5063	21.975	-207.07	50.7806	11.0046	-188.088	38.4115	-4.76957	-173.218	26.2195	-11.5257	-226.767	28.8653	-38.6435	-207.773	30.037	-52.9629	-182.525	32.3818	-58.8067	-228.174	6.7899	-35.9402	-209.206	-1.97087	-55.6901	-186.446	-0.15758	-72.3983	-215.763	-8.95195	-24.3837	-188.232	-1.07123	-32.2168	-171.869	10.1185	-22.6714	-214.218	-20.9188	-5.75085	-192.335	-19.1408	-16.6711	-173.284	-8.85892	-16.18	-249.066	-7.05384	14.0744	-260.897	-2.64029	37.2437	-258.766	18.4043	14.9716	
213	1.775	-243.555	42.3419	24.592	-210.042	51.7038	12.8707	-191.394	41.0128	-0.608441	-169.744	31.0643	-10.2604	-223.778	23.3808	-38.2801	-205.17	27.8175	-51.1252	-182.655	28.405	-54.2216	-220.289	1.19888	-37.2719	-204.979	-0.866244	-52.2182	-179.801	-2.10298	-64.4779	-210.754	-10.4878	-20.2171	-184.904	-0.0282441	-28.0306	-171.057	16.3461	-17.8578	-206.82	-19.5551	-3.52358	-186.087	-13.3669	-12.6682	-166.63	-0.26887	-11.9535	-245.998	-10.3513	14.5279	-258.143	-5.59444	36.946	-261.574	18.0544	16.0954	
214	1.78333	-246.026	41.6747	23.3813	-212.802	49.1443	12.4534	-191.683	43.9928	2.41409	-173.362	38.044	-2.31776	-223.049	22.4064	-36.7029	-202.146	24.6431	-47.1899	-177.802	33.6227	-52.2315	-218.74	0.963059	-31.5853	-196.952	2.32574	-52.2491	-172.687	4.6533	-62.0283	-205.22	-10.1207	-15.7626	-181.415	0.648395	-22.0093	-169.534	22.0079	-6.45281	-201.997	-18.9964	0.721077	-179.313	-9.76477	-6.4305	-163.133	7.33093	-4.29508	-244.38	-11.1947	12.8132	-257.69	-6.32541	36.0828	-261.761	10.72	14.379	
215	1.79167	-245.761	37.9057	22.5431	-216.186	50.2009	14.8521	-193.361	47.8577	5.90533	-175.066	44.0367	2.05863	-222.737	19.6321	-30.5312	-201.165	23.8611	-44.642	-178.92	33.0592	-48.4086	-211.065	-2.01443	-30.0225	-193.981	0.688064	-45.3487	-165.172	6.51438	-57.2826	-198.698	-6.91077	-16.3005	-176.23	4.30011	-14.9808	-171.117	27.3519	-2.5671	-195.084	-18.8368	4.34139	-177.562	-8.56823	-2.0807	-162.483	12.1623	-0.700236	-239.113	-13.2239	16.5597	-258.938	-8.85004	36.6455	-259.402	7.8361	11.6456	
216	1.8	-249.533	35.6659	25.6187	-216.106	48.7615	15.3447	-195.655	50.6541	8.74998	-173.838	44.8935	3.50416	-219.584	18.2058	-30.9406	-194.774	25.0498	-43.9703	-176.165	35.2662	-47.5414	-210.448	-0.0601946	-27.2503	-186.464	1.23503	-44.7716	-159.371	6.34874	-49.9087	-197.598	-6.53858	-9.06505	-173.175	9.15404	-9.42925	-172.155	32.4005	5.25844	-193.011	-16.7277	6.37371	-174.372	-7.69551	2.41362	-161.115	13.8614	2.08129	-238.466	-13.6396	15.543	-252.355	-14.126	37.1557	-256.611	4.18011	13.9635	
217	1.80833	-246.874	36.025	20.8288	-216.283	48.4279	15.5529	-196.675	49.9724	11.3383	-174.896	44.8561	6.56237	-216.026	17.5985	-31.4343	-196.203	22.6128	-41.3357	-174.511	37.5105	-45.7441	-202.955	-3.20439	-28.2031	-183.457	0.526598	-41.096	-157.302	6.68373	-47.9521	-190.96	-6.19813	-8.25629	-170.594	8.53732	-5.29941	-173.411	34.4541	10.2633	-191.68	-17.2326	11.5923	-169.971	-9.3343	7.96485	-158.62	14.0968	6.89375	-235.998	-16.4058	16.3044	-251.744	-15.1133	38.7858	-254.617	0.943105	14.0733	
218	1.81667	-245.543	32.8907	21.1176	-217.854	47.5389	17.2638	-194.583	48.0307	9.45531	-171.99	45.7762	6.87419	-214.205	14.844	-29.2135	-193.507	21.4521	-40.0169	-171.772	36.9074	-44.4711	-200.438	-6.69644	-25.4957	-180.517	-2.85203	-36.9465	-153.186	6.56328	-45.7274	-190.367	-9.13012	-4.44492	-169.308	11.8526	-4.4424	-170.637	29.9158	12.0921	-189.379	-20.1133	15.0516	-169.226	-6.35954	6.04664	-155.815	13.0171	6.70873	-233.779	-18.346	18.1649	-249.873	-19.5356	37.8118	-255.211	-2.40692	15.4737	
219	1.825	-245.009	30.6082	22.2318	-216.968	47.6369	16.8862	-191.065	47.0198	7.38732	-172.907	44.8753	8.15305	-213.546	13.4322	-29.2298	-191.082	19.6089	-40.0163	-167.61	37.3268	-43.2878	-200.436	-6.57447	-23.0826	-177.902	-5.45525	-35.9128	-152.087	3.83621	-43.9365	-185.236	-8.64577	-5.83173	-169.99	9.55894	-4.69605	-170.5	31.6614	14.6157	-188.172	-18.1137	12.4693	-167.448	-10.4125	10.0187	-157.081	9.66094	7.34304	-230.153	-19.3331	19.1403	-250.265	-19.6661	36.2945	-250.85	-3.64922	13.8563	
220	1.83333	-245.119	31.8183	22.3042	-215.793	46.6595	16.7671	-192.425	50.2905	9.74016	-170.099	42.5908	6.93706	-211.06	12.7879	-28.6449	-188.492	22.4945	-40.9131	-170.202	35.5226	-44.5655	-201.269	-4.72113	-23.8988	-177.709	-2.18519	-39.3269	-150.633	7.08982	-46.9908	-183.9	-9.31872	-6.18221	-166.651	8.38638	-1.32208	-170.126	29.6217	14.234	-181.637	-20.9258	12.7835	-166.206	-10.963	8.84793	-154.882	11.6299	6.9855	-226.674	-21.8127	19.2435	-247.112	-17.4798	35.002	-250.735	-2.16005	12.0389	
221	1.84167	-244.556	33.1005	22.0695	-212.553	47.1814	15.8732	-188.217	47.9991	8.49185	-166.499	43.0802	6.92081	-209.968	11.9048	-27.689	-189.293	20.4321	-39.7511	-167.46	35.2969	-43.1657	-199.485	-5.33252	-25.6257	-173.971	-3.77041	-37.363	-147.685	6.06217	-45.5145	-186.147	-7.85938	-6.91314	-166.231	10.1573	-1.82949	-169.629	30.8385	17.5379	-183.093	-19.1465	10.5767	-164.437	-10.631	9.19832	-150.681	9.07737	9.84555	-226.868	-19.4278	17.464	-248.712	-21.3759	40.1741	-250.406	-1.23497	10.7681	
222	1.85	-242.834	31.7456	22.4319	-211.057	46.4869	15.6387	-187.392	47.6674	7.41461	-163.846	40.628	6.50063	-211.537	13.4526	-28.0707	-190.689	22.4095	-40.0089	-169.665	35.8127	-43.9554	-199.69	-5.30148	-22.5944	-173.167	-1.52295	-38.1668	-146.523	6.39338	-44.3652	-184.592	-7.28632	-7.31783	-165.21	9.79251	-2.36652	-167.793	29.6267	16.8431	-185.784	-19.4132	15.2637	-161.369	-8.44062	10.7572	-148.447	10.2994	10.6682	-225.428	-21.0354	19.4859	-246.556	-17.8311	38.6968	-249.2	-3.14267	16.6925	
223	1.85833	-243.395	33.2696	22.0539	-215.343	48.0848	19.542	-191.93	46.6171	10.8716	-166.684	45.7973	7.20919	-209.203	14.7435	-28.2207	-187.74	22.0355	-38.523	-166.149	36.7544	-42.3598	-194.343	-5.39013	-21.1527	-174.276	0.242842	-37.3211	-147.209	11.1201	-46.3037	-184.849	-5.03038	-6.00242	-165.084	15.7818	-0.817615	-170.194	33.1721	14.7185	-180.08	-15.9478	11.9576	-162.497	-4.5105	8.06874	-147.782	13.2526	9.43522	-226.578	-18.694	18.1538	-242.191	-21.9808	38.7157	-246.285	-2.60306	16.9382	
224	1.86667	-241.663	32.7941	23.4159	-212.836	46.8633	16.9612	-191.308	55.4122	10.9827	-167.315	50.2188	8.34516	-207.429	18.1436	-28.5629	-185.093	27.6574	-39.1592	-166.638	44.3953	-42.6009	-191.236	-1.23291	-22.7254	-168.23	4.41751	-36.7084	-147.164	18.6	-46.3235	-183.38	-2.11618	-2.30944	-162.385	20.6044	1.09483	-171.724	38.8291	16.6158	-176.336	-13.9092	14.4944	-158.651	-2.06746	10.7887	-146.164	19.2733	7.88467	-222.275	-18.5235	22.1193	-241.949	-19.8651	40.2623	-245.828	-0.397992	14.039	
225	1.875	-242.438	36.3347	23.6557	-215.825	55.7376	17.5797	-195.013	55.51	13.1976	-166.093	53.4544	7.53195	-203.939	22.3127	-29.4824	-186.417	36.3217	-40.5511	-167.336	46.1794	-41.3732	-194.108	5.04071	-21.924	-168.365	9.84442	-35.4176	-147.708	24.6265	-44.4311	-176.311	3.91858	-4.7393	-164.82	28.6094	-2.17129	-171.163	43.482	17.5577	-174.999	-6.00529	11.6452	-157.458	5.58006	8.95916	-143.726	25.0196	7.716	-220.178	-15.6841	20.924	-238.375	-15.4617	42.3031	-243.304	1.81824	15.9068	
